<?xml version="1.0" encoding="utf-8"?>
<!-- Generator: Adobe Illustrator 27.0.1, SVG Export Plug-In . SVG Version: 6.00 Build 0)  -->
<svg version="1.1" id="Layer_1" xmlns="http://www.w3.org/2000/svg" xmlns:xlink="http://www.w3.org/1999/xlink" x="0px" y="0px"
	 viewBox="0 0 512 512" style="enable-background:new 0 0 512 512;" xml:space="preserve">
<style type="text/css">
	.st0{fill:#FFFFFF;stroke:#000000;stroke-miterlimit:10;}
</style>
<path class="st0" d="M421.9,90.1c-91.4-91.8-240-92.2-331.9-0.7s-92.2,240-0.7,331.9c0.2,0.2,0.5,0.5,0.7,0.7
	c91.4,91.8,240,92.2,331.9,0.7s92.2-240,0.7-331.9C422.4,90.5,422.2,90.3,421.9,90.1z M440.7,149.3h-14.1c-2,0-3.9-0.8-5.3-2.2
	l-2.2-2.2c-5.4-5.4-12.7-8.4-20.3-8.4h-13.8c-4.5,0-8.9,1-12.9,3l-17.9,9c-1,0.5-2.2,0.8-3.4,0.8h-3.2c-4.1,0-7.4-3.3-7.4-7.4
	c0-2,0.8-3.9,2.2-5.3l18.2-18.2c0.6-0.6,1.2-1,1.9-1.4l19.1-9.6c1-0.5,2.2-0.8,3.3-0.8h23.2C420.8,119.5,431.7,133.8,440.7,149.3z
	 M145.5,73.6L171,91.2c1.2,0.9,2.2,2,2.9,3.3l3,6.1c5.1,10.3,15.6,16.7,27,16.7h21.7c4.9,0,8.9,4,8.9,8.9v0.4c0,3.4-1.9,6.4-4.9,7.9
	l-52.1,26.1c-1.1,0.6-2.2,1.2-3.2,1.9l-26.7,17.8c-4.4,2.9-7.9,6.9-10.3,11.6l-4,7.9c-4.3,8.5-4.3,18.5,0,27c1.7,3.4,1,7.6-1.7,10.3
	l-0.6,0.6c-2.9,2.9-7.3,3.4-10.8,1.3l-34.1-20.4c-1.8-1.1-3.2-2.8-3.8-4.8L74,188.6c-1.5-4.4-5.5-7.3-10.1-7.3
	c-2.5,0.1-4.9-0.5-7.1-1.5C73.8,135.5,105,98.2,145.5,73.6z M42.7,256c0-18.8,2.5-37.6,7.4-55.8c1.9,0.7,3.8,1.3,5.8,1.7l6.2,18.6
	c2.3,6.8,6.9,12.7,13.1,16.4l34,20.4c11.9,7.2,27.1,5.3,36.9-4.5l0.6-0.6c9.2-9.2,11.5-23.2,5.7-34.9c-1.3-2.5-1.3-5.4,0-7.9l4-7.9
	c0.7-1.4,1.7-2.6,3-3.4l26.7-17.8c0.3-0.2,0.6-0.4,1-0.6l52.1-26.1c10.3-5.1,16.7-15.6,16.7-27v-0.4c0-16.7-13.5-30.2-30.2-30.2
	h-21.7c-3.4,0-6.4-1.9-7.9-4.9l-3-6.1c-2.3-4.5-5.6-8.4-9.8-11.3l-16.5-11.4c71.1-32.8,154.6-24,217.2,23.1c-4.1,0.1-8.1,1.2-11.8,3
	l-19.2,9.6c-2.8,1.4-5.3,3.2-7.4,5.4l-18.2,18.2c-5.4,5.4-8.4,12.7-8.4,20.3c0,15.9,12.9,28.8,28.8,28.8h3.2c4.5,0,8.9-1,12.9-3
	l17.9-9c1-0.5,2.2-0.8,3.3-0.8h13.8c2,0,3.9,0.8,5.3,2.2l2.2,2.2c5.4,5.4,12.7,8.4,20.3,8.4h24.9c3.2,7.3,6,14.8,8.4,22.4h-40.5
	c-1.1,0-2.3-0.2-3.4-0.6l-22.8-7.6c-5.8-1.9-12-2.2-17.9-0.7l-33.1,8.3c-3.5,0.9-6.9,2.4-10,4.4l-19.4,12.9
	c-8.9,5.9-14.3,15.9-14.3,26.6v17.1c0,3.4,0.6,6.9,1.6,10.1l4.7,14.1c4.3,13.1,16.6,21.9,30.4,21.9h0.9c5,0,9.9-1.2,14.3-3.4
	l7.3-3.6c5.3-2.6,11.7-0.5,14.3,4.8c0.7,1.5,1.1,3.1,1.1,4.8v3.1c0,5,1.2,9.9,3.4,14.3l16.8,33.7c0.7,1.5,1.1,3.1,1.1,4.7v23.5
	c0,3.4,0.6,6.9,1.6,10.1c0.1,0.2,0.1,0.4,0.2,0.6l7.1,17.6c-39.6,38.1-92.5,59.4-147.5,59.4C138.4,469.3,42.7,373.6,42.7,256z
	 M419.6,392.8l-3.3-8.1c-0.3-1-0.5-2.1-0.5-3.1v-23.5c0-5-1.2-9.9-3.4-14.3l-16.8-33.7c-0.7-1.5-1.1-3.1-1.1-4.7v-3.1
	c0-12.1-6.8-23.2-17.7-28.6c-9-4.5-19.6-4.5-28.6,0l-7.3,3.7c-1.5,0.7-3.1,1.1-4.7,1.1h-0.9c-4.6,0-8.7-2.9-10.1-7.3l-4.7-14.1
	c-0.4-1.1-0.6-2.2-0.6-3.4v-17.1c0-3.6,1.8-6.9,4.8-8.9l19.4-13c1-0.7,2.1-1.2,3.3-1.5l33-8.3c2-0.5,4-0.4,6,0.2l22.8,7.6
	c3.3,1.1,6.7,1.6,10.1,1.6h45.9C477.8,277.7,461,343.3,419.6,392.8z"/>
<path class="st0" d="M274.7,296.1l-28.1-14c-0.9-0.4-1.4-1.3-1.4-2.3c0-13.2-10.7-23.8-23.9-23.8h-2.7c-0.7,0-1.3-0.3-1.8-0.7
	l-2.9-2.9c-4.5-4.5-10.5-7-16.9-7h-18.4c-9,0-17.3,5.1-21.3,13.2l-5.1,10.1c-0.2,0.5-0.6,0.9-1.1,1.1l0,0l-10.1,5.1
	c-8.1,4-13.2,12.3-13.2,21.3v9.2c0,4.7,1.4,9.3,4,13.2l17.2,25.8c2.3,3.5,5.5,6.2,9.2,8.1l10.9,5.5c0.9,0.4,1.4,1.3,1.4,2.3v42.1
	c0,3.7,0.9,7.4,2.5,10.7l8.3,16.6c1.1,2.3,2.7,4.4,4.5,6.2l13.1,13.1c7.3,7.3,18.4,9.1,27.5,4.5l7.1-3.5c6.6-3.3,11.3-9.4,12.7-16.7
	l8.6-43.1c0.1-0.5,0.3-0.9,0.7-1.3l16.3-16.3c2.6-2.6,4.6-5.8,5.8-9.3l9-27c0.8-2.4,1.2-5,1.2-7.5v-11
	C287.9,308.4,282.8,300.2,274.7,296.1z M266.5,328.5c0,0.3,0,0.5-0.1,0.8l-9,27c-0.1,0.4-0.3,0.7-0.6,1l-16.3,16.3
	c-3.3,3.3-5.6,7.6-6.5,12.2l-8.6,43.1c-0.2,0.8-0.6,1.4-1.3,1.8l-7.1,3.5c-1,0.5-2.1,0.3-2.9-0.5l-13.1-13.1
	c-0.2-0.2-0.4-0.4-0.5-0.7l-8.3-16.6c-0.2-0.4-0.3-0.7-0.3-1.1v-42.1c0-9-5.1-17.3-13.2-21.3l-10.9-5.5c-0.4-0.2-0.7-0.5-1-0.9
	l-17.2-25.8c-0.3-0.4-0.4-0.9-0.4-1.4v-9.2c0-1,0.5-1.8,1.4-2.3l10.1-5.1c4.6-2.3,8.4-6.1,10.7-10.7l5.1-10.1
	c0.4-0.9,1.3-1.4,2.3-1.4h18.4c0.7,0,1.3,0.3,1.8,0.7l2.9,2.9c4.5,4.5,10.5,7,16.9,7h2.7c1.4,0,2.5,1.1,2.5,2.5
	c0,9,5.1,17.3,13.2,21.3l28.1,14c0.9,0.4,1.4,1.3,1.4,2.3L266.5,328.5z"/>
</svg>
